<?xml version="1.0" encoding="utf-8"?>
<!-- Generator: Adobe Illustrator 16.0.0, SVG Export Plug-In . SVG Version: 6.00 Build 0)  -->
<!DOCTYPE svg PUBLIC "-//W3C//DTD SVG 1.1//EN" "http://www.w3.org/Graphics/SVG/1.1/DTD/svg11.dtd">
<svg version="1.1" id="Layer_1" xmlns="http://www.w3.org/2000/svg" xmlns:xlink="http://www.w3.org/1999/xlink" x="0px" y="0px"
	 width="1715.7px" height="804.9px" viewBox="0 0 1715.7 804.9" style="enable-background:new 0 0 1715.7 804.9;"
	 xml:space="preserve">
<style type="text/css">
<![CDATA[
	.st0{clip-path:url(#SVGID_2_);fill:url(#SVGID_4_);}
	.st1{clip-path:url(#SVGID_2_);mask:url(#SVGID_3_);fill-rule:evenodd;clip-rule:evenodd;fill:#1B52A3;}
	.st2{filter:url(#Adobe_OpacityMaskFilter);}
	.st3{fill:#0085FF;}
	.st4{fill-rule:evenodd;clip-rule:evenodd;fill:#0085FF;}
]]>
</style>
<path class="st3" d="M508.1,420.3c-0.9-5.5-2.8-10.5-5.7-15s-6.3-8.4-10.4-11.7c-4.1-3.3-8.9-5.8-14.1-7.7s-10.8-2.7-16.7-2.7
	c-6,0-11.6,0.9-16.8,2.8c-5.2,1.8-9.9,4.4-14,7.7c-4.1,3.3-7.4,7.2-10.1,11.7s-4.5,9.5-5.5,14.9H508.1z M415.6,443
	c1,5.2,3,10.1,5.8,14.5c2.8,4.4,6.1,8.1,10.1,11.3s8.4,5.7,13.4,7.4c5,1.8,10.2,2.7,15.8,2.7c6.6,0,12.7-1.1,18.4-3.3
	c5.7-2.2,10.3-5.3,14-9.4c2.4-1.8,4.8-2.9,7-3.3c2.3-0.4,4.4-0.2,6.5,0.6c1.4,0.5,2.6,1.3,3.6,2.3c1,1,2,2.2,2.8,3.4
	c1.8,2.6,2.6,5.6,2.4,9c-0.2,3.4-1.9,6.4-5,9.1c-2.5,2.5-5.4,4.9-8.7,7.2c-3.3,2.3-7,4.3-11.1,6c-4.1,1.7-8.6,3-13.5,4
	c-4.9,1-10.4,1.5-16.4,1.5c-10.4,0-20.1-2-29.3-5.9c-9.1-3.9-17.1-9.3-23.9-16c-6.8-6.8-12.2-14.7-16.1-23.8s-5.9-18.9-5.9-29.3
	s2-20.1,5.9-29.3c3.9-9.1,9.3-17.1,16.1-23.9c6.8-6.8,14.8-12.1,23.9-16s18.9-5.9,29.3-5.9c10.3,0,20,1.9,29.1,5.8
	c9.1,3.9,17.1,9.1,23.9,15.8c6.8,6.7,12.2,14.6,16.2,23.7c4,9.1,6,18.7,6.1,28.9c0,3.8-1.2,6.9-3.7,9.3s-5.7,3.6-9.7,3.6H415.6z"/>
<path class="st3" d="M594.3,430.4c0,0.1-0.1,0.3-0.3,0.5l0.3,0.3c0,6,1.2,11.7,3.6,17.3c2.4,5.6,5.6,10.6,9.6,15
	c4.1,4.5,8.9,8,14.5,10.8c5.6,2.7,11.6,4.1,18.1,4.2c6,0.1,11.6-0.8,17-2.6c5.3-1.8,10.5-4.9,15.4-9.2c1.4-1,2.9-2.1,4.5-3.1
	c1.6-1,3.3-1.8,5.1-2.2c1.8-0.4,3.7-0.4,5.7,0.1c2,0.5,4.1,1.7,6.3,3.6c3,2.6,4.5,5.9,4.4,9.9c-0.1,3.9-1.7,7.5-4.9,10.8
	c-6.4,6.5-14.1,11.5-23,15c-9,3.5-18.3,5.2-28,5.2c-10.4,0-20.1-1.9-29.3-5.8s-17.3-9.1-24.1-15.8c-6.9-6.7-12.3-14.6-16.3-23.6
	c-3.9-9-5.9-18.7-5.9-29.1l0.3-0.6l-0.3-0.3c0-10.4,2-20.1,5.9-29.3c4-9.1,9.4-17.1,16.3-23.9c6.9-6.8,14.9-12.1,24.1-15.9
	c9.2-3.9,18.9-5.8,29.3-5.8c9.8,0,19.1,1.7,28,5c8.9,3.3,16.6,8.2,23,14.8c3.1,3.3,4.8,6.9,4.9,10.9c0.1,4-1.4,7.3-4.4,9.9
	c-2.2,1.9-4.3,3-6.3,3.5c-2,0.5-3.9,0.5-5.7,0.1c-1.8-0.4-3.5-1.2-5.1-2.2c-1.6-1-3.1-2.1-4.5-3.3c-4.9-4.2-10.1-7.2-15.4-9
	c-5.3-1.8-11-2.6-17-2.4c-6.4,0.1-12.4,1.5-17.9,4.1c-5.6,2.7-10.4,6.2-14.5,10.6c-4.1,4.4-7.4,9.4-9.8,15.1
	C595.5,418.6,594.3,424.4,594.3,430.4"/>
<path class="st3" d="M855.2,420.3c-0.9-5.5-2.8-10.5-5.7-15s-6.3-8.4-10.4-11.7c-4.1-3.3-8.9-5.8-14.1-7.7s-10.8-2.7-16.7-2.7
	c-6,0-11.6,0.9-16.8,2.8c-5.2,1.8-9.9,4.4-14,7.7c-4.1,3.3-7.4,7.2-10.1,11.7s-4.5,9.5-5.5,14.9H855.2z M762.7,443
	c1,5.2,3,10.1,5.8,14.5c2.8,4.4,6.1,8.1,10.1,11.3s8.4,5.7,13.4,7.4c5,1.8,10.2,2.7,15.8,2.7c6.6,0,12.7-1.1,18.4-3.3
	c5.7-2.2,10.3-5.3,14-9.4c2.4-1.8,4.8-2.9,7-3.3c2.3-0.4,4.4-0.2,6.5,0.6c1.4,0.5,2.6,1.3,3.6,2.3s2,2.2,2.8,3.4
	c1.8,2.6,2.6,5.6,2.4,9s-1.9,6.4-5,9.1c-2.5,2.5-5.4,4.9-8.7,7.2c-3.3,2.3-7,4.3-11.1,6c-4.1,1.7-8.6,3-13.5,4
	c-4.9,1-10.4,1.5-16.4,1.5c-10.4,0-20.1-2-29.3-5.9c-9.1-3.9-17.1-9.3-23.9-16c-6.8-6.8-12.2-14.7-16.1-23.8s-5.9-18.9-5.9-29.3
	s2-20.1,5.9-29.3c3.9-9.1,9.3-17.1,16.1-23.9c6.8-6.8,14.8-12.1,23.9-16s18.9-5.9,29.3-5.9c10.3,0,20,1.9,29.1,5.8
	c9.1,3.9,17.1,9.1,23.9,15.8c6.8,6.7,12.2,14.6,16.2,23.7c4,9.1,6,18.7,6.1,28.9c0,3.8-1.2,6.9-3.7,9.3c-2.5,2.4-5.7,3.6-9.7,3.6
	H762.7z"/>
<path class="st3" d="M922.9,370.7c0-4,0.8-7.2,2.5-9.6c1.6-2.5,4.4-3.7,8.3-3.7c3.4,0,6.2,1.3,8.3,3.9c2.2,2.6,3.9,5.9,5.1,9.8
	l1.3,11.8c5.7-8.1,12.7-14.7,21.2-19.6c8.4-5,18-7.4,28.8-7.4c10,0,18.8,1.9,26.6,5.7c7.8,3.8,14.3,8.9,19.6,15.4
	c5.3,6.6,9.3,14.2,12,22.9c2.7,8.8,4.1,18.1,4.1,28.1v63c0,3.9-1.3,7.1-3.9,9.6c-2.6,2.5-5.8,3.8-9.5,3.8c-3.8,0-7.1-1.3-9.9-3.8
	c-2.7-2.5-4.1-5.7-4.1-9.6v-62.1c0-0.9,0.1-1.7,0.3-2.2c-0.2-6-1.2-11.6-3-16.9c-1.8-5.3-4.5-9.9-7.8-13.8c-3.4-3.9-7.4-7-12.2-9.3
	c-4.8-2.3-10.2-3.4-16.2-3.4c-6,0-11.6,1.3-16.8,3.8s-9.8,5.9-13.7,10.1c-3.9,4.2-7.1,9.1-9.4,14.7c-2.4,5.6-3.8,11.3-4.2,17.3V490
	c0,3.9-1.3,7.2-3.7,9.9c-2.5,2.7-5.7,4.1-9.5,4.1c-4,0-7.4-1.4-10.1-4.1c-2.7-2.7-4-6-4-9.9V370.7z"/>
<path class="st3" d="M1146.9,357.4h20.2c3.9,0,7.1,1.3,9.8,3.9c2.6,2.7,3.9,5.9,3.9,9.6c0,3.9-1.3,7.2-3.9,9.9
	c-2.7,2.6-5.9,3.9-9.8,3.9h-20.2v105.4c0,2-0.3,3.8-1,5.5c-0.7,1.7-1.6,3.1-2.8,4.4c-1.2,1.3-2.6,2.3-4.2,2.9c-1.6,0.7-3.4,1-5.3,1
	c-3.8,0-7-1.3-9.6-3.9s-4-5.9-4-9.9V384.7l-14.2-0.2c-1.9,0-3.7-0.4-5.4-1.1s-3.1-1.7-4.5-3c-1.3-1.3-2.2-2.7-2.9-4.4
	c-0.7-1.6-1-3.4-1-5.2c0-3.8,1.3-7,3.9-9.6c2.7-2.6,5.9-3.9,9.9-3.9h14.2v-29.3c0-3.8,1.4-6.9,4-9.5c2.7-2.6,5.9-3.9,9.8-3.9
	c3.8,0,6.9,1.3,9.4,3.9c2.5,2.6,3.8,5.8,3.8,9.5V357.4z"/>
<path class="st3" d="M1212.6,370.7c0-4,0.8-7.2,2.5-9.6s4.4-3.7,8.3-3.7c3.4,0,6.2,1.3,8.3,3.9c2.2,2.6,3.9,5.8,5.1,9.6l1.6,14.2
	c5.7-8.3,12.7-14.9,21-19.9c8.3-5,18.1-7.5,29.3-7.5h0.8c4.4,0,7.9,1.3,10.4,3.9c2.5,2.6,3.8,5.8,3.8,9.7c0,3.9-1.4,7.2-4.1,9.9
	c-2.8,2.6-6.1,3.9-10,3.9h-0.8c-6.7,0-13,1.3-18.7,3.8c-5.8,2.6-10.8,6.1-15.1,10.5c-4.3,4.4-7.8,9.5-10.4,15.5
	c-2.6,6-4.1,12.3-4.6,19V490c0,3.9-1.3,7.2-3.7,9.9c-2.5,2.7-5.7,4.1-9.5,4.1c-4,0-7.4-1.4-10.1-4.1c-2.7-2.7-4-6-4-9.9V370.7z"/>
<path class="st3" d="M1354.3,430.9c0,6.5,1.3,12.7,3.8,18.5c2.5,5.8,5.9,10.9,10.2,15.3c4.3,4.4,9.4,7.8,15.2,10.4
	c5.8,2.6,12,3.8,18.6,3.8c6.7,0,13-1.3,18.8-3.8s10.9-6,15.2-10.4s7.7-9.4,10.2-15.3c2.5-5.8,3.7-12,3.7-18.5
	c0-6.6-1.2-12.8-3.7-18.6c-2.5-5.8-5.9-10.9-10.2-15.2c-4.3-4.3-9.3-7.7-15.2-10.2s-12.1-3.8-18.8-3.8c-6.6,0-12.8,1.3-18.6,3.8
	c-5.8,2.5-10.9,5.9-15.2,10.2c-4.3,4.2-7.7,9.3-10.2,15.2C1355.6,418.1,1354.3,424.3,1354.3,430.9 M1326.9,430.8
	c0-10.4,2-20.1,5.9-29.3c3.9-9.1,9.3-17.1,16.2-23.9c6.8-6.8,14.8-12.1,23.9-16s18.9-5.9,29.2-5.9c10,0,19.4,1.8,28.3,5.6
	c8.9,3.7,16.7,8.7,23.5,15l0.8-5.6c1.5-3.9,3.1-7.2,5-9.6c1.9-2.5,4.5-3.8,7.9-3.8c4,0,6.8,1.3,8.4,3.7s2.4,5.7,2.4,9.6V490
	c0,3.9-1.4,7.2-4,9.9c-2.7,2.7-6,4.1-10,4.1c-3.9,0-7.1-1.4-9.6-4.1c-2.5-2.7-3.7-6-3.7-9.9v-3.9c-6.7,6-14.2,10.8-22.5,14.4
	c-8.3,3.6-17.1,5.5-26.3,5.5c-10.3,0-20-2-29.2-5.9c-9.1-3.9-17.1-9.3-23.9-16.1c-6.9-6.8-12.2-14.8-16.2-23.9
	C1328.9,450.9,1326.9,441.2,1326.9,430.8z"/>
<path class="st3" d="M1556.4,490.5c0,1.9-0.3,3.6-1,5.2c-0.7,1.6-1.6,3-2.8,4.2s-2.6,2.2-4.2,2.9s-3.4,1.1-5.3,1.1
	c-1.9,0-3.6-0.4-5.2-1.1c-1.6-0.7-3.1-1.7-4.4-2.9c-1.3-1.2-2.3-2.6-3-4.2c-0.7-1.6-1.1-3.4-1.1-5.2V314.6c0-1.9,0.4-3.6,1.1-5.2
	c0.7-1.6,1.7-3,3-4.2c1.3-1.2,2.7-2.2,4.4-2.9c1.7-0.7,3.5-1.1,5.3-1.1c3.8,0,6.9,1.4,9.4,4c2.5,2.7,3.8,5.8,3.8,9.5V490.5z"/>
<path class="st4" d="M250.9,417.7c2.5,0,4.5,2.1,4.5,4.6c0,2.5-2,4.6-4.5,4.6c-2.5,0-4.5-2.1-4.5-4.6
	C246.4,419.7,248.4,417.7,250.9,417.7 M252.6,407h21.8c2.3,0,3.3-0.7,3.3-3c0-9.3-2.9-20.7-14.4-20.7h-53.2v0h-35.6
	c-7.4,0-13.4-6.2-13.4-13.7v0c0-7.5,6-13.7,13.4-13.7c23.4,0,42.3,0,65.7,0h18.8c3.5,0,6.3-2.9,6.3-6.4c0-3.5-2.8-6.5-6.3-6.5h-19.3
	c-13.1,0-19.4,0-25.2,0v0.2h-37.1c-2.8,0.1-5.5-0.4-8-1.4c-2.5-1-4.6-2.5-6.3-4.4c-1.8-1.8-3.2-4-4.2-6.5c-1-2.5-1.6-5.1-1.6-7.9
	c0-2.8,0.5-5.5,1.6-8s2.5-4.7,4.2-6.6c1.8-1.9,3.9-3.4,6.3-4.5c2.5-1.1,5.1-1.6,8-1.6h15.5h21.6h36.7c54.2,0,98.5,45.2,98.5,100.5
	s-44.3,100.5-98.5,100.5h-64.4c-0.5,0-0.9,0-1.4-0.1h-8.1c-2.8,0.1-5.5-0.4-8-1.4c-2.5-1-4.6-2.5-6.3-4.4c-1.8-1.8-3.2-4-4.2-6.5
	s-1.6-5.1-1.6-7.9c0-2.8,0.5-5.5,1.6-8c1-2.5,2.5-4.7,4.2-6.6c1.8-1.9,3.9-3.4,6.3-4.5c2.5-1.1,5.1-1.6,8-1.6h37.1v0.2h42.4
	c13.4,0,21.5-8.6,21.5-21.6c0-2.7-0.4-3.4-3.3-3.4h-22.4c-8.2,0-14.9-6.8-14.9-15.2S244.4,407,252.6,407z"/>
<g>
	<defs>
		<path id="SVGID_1_" d="M250.9,417.7c2.5,0,4.5,2.1,4.5,4.6c0,2.5-2,4.6-4.5,4.6c-2.5,0-4.5-2.1-4.5-4.6
			C246.4,419.7,248.4,417.7,250.9,417.7 M252.6,407h21.8c2.3,0,3.3-0.7,3.3-3c0-9.3-2.9-20.7-14.4-20.7h-53.2v0h-35.6
			c-7.4,0-13.4-6.2-13.4-13.7v0c0-7.5,6-13.7,13.4-13.7c23.4,0,42.3,0,65.7,0h18.8c3.5,0,6.3-2.9,6.3-6.4c0-3.5-2.8-6.5-6.3-6.5
			h-19.3c-13.1,0-19.4,0-25.2,0v0.2h-37.1c-2.8,0.1-5.5-0.4-8-1.4c-2.5-1-4.6-2.5-6.3-4.4c-1.8-1.8-3.2-4-4.2-6.5
			c-1-2.5-1.6-5.1-1.6-7.9c0-2.8,0.5-5.5,1.6-8s2.5-4.7,4.2-6.6c1.8-1.9,3.9-3.4,6.3-4.5c2.5-1.1,5.1-1.6,8-1.6h15.5h21.6h36.7
			c54.2,0,98.5,45.2,98.5,100.5s-44.3,100.5-98.5,100.5h-64.4c-0.5,0-0.9,0-1.4-0.1h-8.1c-2.8,0.1-5.5-0.4-8-1.4
			c-2.5-1-4.6-2.5-6.3-4.4c-1.8-1.8-3.2-4-4.2-6.5s-1.6-5.1-1.6-7.9c0-2.8,0.5-5.5,1.6-8c1-2.5,2.5-4.7,4.2-6.6
			c1.8-1.9,3.9-3.4,6.3-4.5c2.5-1.1,5.1-1.6,8-1.6h37.1v0.2h42.4c13.4,0,21.5-8.6,21.5-21.6c0-2.7-0.4-3.4-3.3-3.4h-22.4
			c-8.2,0-14.9-6.8-14.9-15.2S244.4,407,252.6,407z"/>
	</defs>
	<clipPath id="SVGID_2_">
		<use xlink:href="#SVGID_1_"  style="overflow:visible;"/>
	</clipPath>
	<defs>
		<filter id="Adobe_OpacityMaskFilter" filterUnits="userSpaceOnUse" x="122.7" y="283.3" width="191.3" height="178">
			<feColorMatrix  type="matrix" values="1 0 0 0 0  0 1 0 0 0  0 0 1 0 0  0 0 0 1 0"/>
		</filter>
	</defs>
	<mask maskUnits="userSpaceOnUse" x="122.7" y="283.3" width="191.3" height="178" id="SVGID_3_">
		<g class="st2">
			
				<linearGradient id="SVGID_4_" gradientUnits="userSpaceOnUse" x1="185.083" y1="805.4897" x2="97.153" y2="717.4698" gradientTransform="matrix(1 0 0 1 122.7456 -343.6211)">
				<stop  offset="0" style="stop-color:#FFFFFF"/>
				<stop  offset="1" style="stop-color:#000000"/>
			</linearGradient>
			<rect x="122.7" y="283.3" class="st0" width="191.3" height="178"/>
		</g>
	</mask>
	<path class="st1" d="M230.7,300.4c46,0,83.3,39.2,83.3,87.6c0,35.2-20.2,58.8-48.6,72.8c-10.7,5.2-19.5-25.8-32.1-25.8
		c-46,0-85.8,1.4-85.8-47c0-31.6-41.1-87.5-17.3-102.9C142.8,276.9,214.8,300.4,230.7,300.4"/>
</g>
</svg>
