<svg width="49" height="21" viewBox="0 0 49 21" fill="none" xmlns="http://www.w3.org/2000/svg">
<path fill-rule="evenodd" clip-rule="evenodd" d="M22.5997 15.7822V9.86113H25.6556C26.9079 9.86113 27.9649 9.44152 28.8265 8.61397L29.0333 8.40417C30.6072 6.69079 30.5038 4.02165 28.8265 2.43648C27.9878 1.59727 26.839 1.1427 25.6556 1.16602H20.75V15.7822H22.5997ZM22.6006 8.06611V2.96094H25.703C26.3695 2.96094 27.0014 3.21736 27.4725 3.68359C28.4722 4.66266 28.4952 6.29445 27.53 7.30849C27.0589 7.80969 26.3924 8.08942 25.703 8.06611H22.6006ZM37.6604 6.56261C36.8677 5.8283 35.7877 5.45532 34.4206 5.45532C32.6628 5.45532 31.3417 6.10804 30.4685 7.40181L32.0999 8.43917C32.6973 7.55334 33.513 7.11042 34.547 7.11042C35.2018 7.11042 35.8337 7.35519 36.3277 7.79811C36.8102 8.21771 37.086 8.8238 37.086 9.46486V9.89612C36.3737 9.49983 35.4776 9.29003 34.3746 9.29003C33.0879 9.29003 32.0539 9.59308 31.2842 10.2108C30.5145 10.8286 30.1239 11.6445 30.1239 12.6818C30.1009 13.6259 30.503 14.5234 31.2153 15.1295C31.9391 15.7822 32.8581 16.1086 33.9381 16.1086C35.2133 16.1086 36.2243 15.5375 36.994 14.3952H37.0745V15.7822H38.8437V9.61639C38.8437 8.32261 38.4531 7.29691 37.6604 6.56261ZM32.64 13.9405C32.2608 13.6608 32.031 13.2062 32.031 12.7167C32.031 12.1689 32.2838 11.7143 32.7778 11.353C33.2834 10.9917 33.9154 10.8052 34.6623 10.8052C35.6964 10.7935 36.5007 11.0266 37.0753 11.4929C37.0753 12.2854 36.765 12.9731 36.156 13.5559C35.6045 14.1154 34.8576 14.4301 34.0763 14.4301C33.5592 14.4417 33.0536 14.2669 32.64 13.9405ZM42.819 20.1764L48.9999 5.78167H46.9894L44.1287 12.9615H44.0943L41.1647 5.78167H39.1542L43.2096 15.1412L40.9119 20.1764H42.819Z" fill="#3C4043"/>
<path d="M16.2121 8.57917C16.2121 8.00804 16.1661 7.43691 16.0742 6.87744H8.27344V10.1061H12.7425C12.5587 11.1434 11.9613 12.0759 11.0881 12.6586V14.7567H13.7535C15.316 13.2997 16.2121 11.1434 16.2121 8.57917Z" fill="#4285F4"/>
<path d="M8.2739 16.7847C10.5027 16.7847 12.3868 16.0387 13.754 14.7566L11.0886 12.6586C10.3419 13.1714 9.3883 13.4628 8.2739 13.4628C6.11404 13.4628 4.28735 11.9826 3.6325 10.0011H0.886719V12.1691C2.28833 15.0014 5.149 16.7847 8.2739 16.7847Z" fill="#34A853"/>
<path d="M3.63386 10.0011C3.28914 8.96371 3.28914 7.83311 3.63386 6.7841V4.62781H0.887638C-0.295879 6.9939 -0.295879 9.79126 0.887638 12.1574L3.63386 10.0011Z" fill="#FBBC04"/>
<path d="M8.2739 3.32237C9.45723 3.29906 10.5946 3.75363 11.4448 4.58118L13.8114 2.18011C12.3064 0.758125 10.3304 -0.022804 8.2739 0.000507265C5.149 0.000507265 2.28833 1.79548 0.886719 4.6278L3.6325 6.79575C4.28735 4.80264 6.11404 3.32237 8.2739 3.32237Z" fill="#EA4335"/>
</svg>