<svg width="6" height="74" viewBox="0 0 6 74" fill="none" xmlns="http://www.w3.org/2000/svg">
<path d="M3 0.333333C1.52724 0.333333 0.333333 1.52724 0.333333 3C0.333333 4.47276 1.52724 5.66667 3 5.66667C4.47276 5.66667 5.66667 4.47276 5.66667 3C5.66667 1.52724 4.47276 0.333333 3 0.333333ZM3 68.3333C1.52724 68.3333 0.33333 69.5272 0.33333 71C0.33333 72.4728 1.52724 73.6667 3 73.6667C4.47276 73.6667 5.66666 72.4728 5.66666 71C5.66666 69.5272 4.47276 68.3333 3 68.3333ZM2.5 4.88889C2.5 5.16503 2.72386 5.38889 3 5.38889C3.27614 5.38889 3.5 5.16503 3.5 4.88889L2.5 4.88889ZM3.5 8.66667C3.5 8.39052 3.27614 8.16667 3 8.16667C2.72386 8.16667 2.5 8.39052 2.5 8.66667L3.5 8.66667ZM2.5 12.4444C2.5 12.7206 2.72386 12.9444 3 12.9444C3.27614 12.9444 3.5 12.7206 3.5 12.4444L2.5 12.4444ZM3.5 16.2222C3.5 15.9461 3.27614 15.7222 3 15.7222C2.72386 15.7222 2.5 15.9461 2.5 16.2222L3.5 16.2222ZM2.5 20C2.5 20.2761 2.72386 20.5 3 20.5C3.27614 20.5 3.5 20.2761 3.5 20L2.5 20ZM3.5 23.7778C3.5 23.5016 3.27614 23.2778 3 23.2778C2.72386 23.2778 2.5 23.5016 2.5 23.7778L3.5 23.7778ZM2.5 27.5556C2.5 27.8317 2.72386 28.0556 3 28.0556C3.27614 28.0556 3.5 27.8317 3.5 27.5556L2.5 27.5556ZM3.5 31.3333C3.5 31.0572 3.27614 30.8333 3 30.8333C2.72386 30.8333 2.5 31.0572 2.5 31.3333L3.5 31.3333ZM2.5 35.1111C2.5 35.3873 2.72386 35.6111 3 35.6111C3.27614 35.6111 3.5 35.3873 3.5 35.1111L2.5 35.1111ZM3.5 38.8889C3.5 38.6128 3.27614 38.3889 3 38.3889C2.72386 38.3889 2.5 38.6128 2.5 38.8889L3.5 38.8889ZM2.5 42.6667C2.5 42.9428 2.72386 43.1667 3 43.1667C3.27614 43.1667 3.5 42.9428 3.5 42.6667L2.5 42.6667ZM3.5 46.4445C3.5 46.1683 3.27614 45.9445 3 45.9445C2.72386 45.9445 2.5 46.1683 2.5 46.4445L3.5 46.4445ZM2.5 50.2222C2.5 50.4984 2.72386 50.7222 3 50.7222C3.27614 50.7222 3.5 50.4984 3.5 50.2222L2.5 50.2222ZM3.5 54C3.5 53.7239 3.27614 53.5 3 53.5C2.72386 53.5 2.5 53.7239 2.5 54L3.5 54ZM2.5 57.7778C2.5 58.0539 2.72386 58.2778 3 58.2778C3.27614 58.2778 3.5 58.0539 3.5 57.7778L2.5 57.7778ZM3.5 61.5556C3.5 61.2794 3.27614 61.0556 3 61.0556C2.72386 61.0556 2.5 61.2794 2.5 61.5556L3.5 61.5556ZM2.5 65.3333C2.5 65.6095 2.72385 65.8333 3 65.8333C3.27614 65.8333 3.5 65.6095 3.5 65.3333L2.5 65.3333ZM3.5 69.1111C3.5 68.835 3.27614 68.6111 3 68.6111C2.72385 68.6111 2.5 68.835 2.5 69.1111L3.5 69.1111ZM2.5 3L2.5 4.88889L3.5 4.88889L3.5 3L2.5 3ZM2.5 8.66667L2.5 12.4444L3.5 12.4444L3.5 8.66667L2.5 8.66667ZM2.5 16.2222L2.5 20L3.5 20L3.5 16.2222L2.5 16.2222ZM2.5 23.7778L2.5 27.5556L3.5 27.5556L3.5 23.7778L2.5 23.7778ZM2.5 31.3333L2.5 35.1111L3.5 35.1111L3.5 31.3333L2.5 31.3333ZM2.5 38.8889L2.5 42.6667L3.5 42.6667L3.5 38.8889L2.5 38.8889ZM2.5 46.4445L2.5 50.2222L3.5 50.2222L3.5 46.4445L2.5 46.4445ZM2.5 54L2.5 57.7778L3.5 57.7778L3.5 54L2.5 54ZM2.5 61.5556L2.5 65.3333L3.5 65.3333L3.5 61.5556L2.5 61.5556ZM2.5 69.1111L2.5 71L3.5 71L3.5 69.1111L2.5 69.1111Z" fill="#0085FF"/>
</svg>
